              <svg
                version="1.1"
                id="Layer_1"
                xmlns="http://www.w3.org/2000/svg"
                xmlns:xlink="http://www.w3.org/1999/xlink"
                x="0px"
                y="0px"
                viewBox="0 0 512.295 512.295"
                style="
                  enable-background: new 0 0 512.295 512.295;
                  fill: rgb(174, 174, 174);
                  height: 80px;
                  width: 80px;
                "
                xml:space="preserve"
              >
                <g>
                  <g>
                    <path
                      d="M416.371,276.047c-2.016-2.384-5.012-3.752-8.224-3.752h-303.5c-3.212,0-6.208,1.368-8.224,3.752
			c-2.072,2.456-2.944,5.756-2.384,9.056l36.58,216.224c1.04,6.148,6.872,10.968,13.28,10.968h225
			c6.404,0,12.236-4.82,13.276-10.968l36.58-216.224C419.311,281.803,418.443,278.503,416.371,276.047z M410.871,283.767
			l-36.58,216.224c-0.392,2.332-2.864,4.304-5.392,4.304h-225c-2.528,0-4.996-1.972-5.392-4.304l-36.58-216.224
			c-0.164-0.988,0.048-1.896,0.608-2.556c0.352-0.416,1.008-0.916,2.112-0.916h303.5c1.108,0,1.76,0.5,2.116,0.916
			C410.823,281.871,411.039,282.779,410.871,283.767z"
                    />
                  </g>
                </g>
                <g>
                  <g>
                    <path
                      d="M272.911,3.819c-0.096-2.204-2.032-3.904-4.172-3.816l-39.668,1.772c-2.208,0.096-3.916,1.964-3.82,4.172l0.696,15.604
			c0.096,2.208,1.956,3.836,4.172,3.82c2.208-0.096,3.916-1.964,3.82-4.172l-0.516-11.604l31.676-1.412l10.388,232.264
			c0.096,2.144,1.864,3.848,3.992,3.848c0.06,0,0.12,0,0.184,0c2.204,0,3.916-2,3.816-4.2L272.911,3.819z"
                    />
                  </g>
                </g>
                <g>
                  <g>
                    <path
                      d="M320.915,1.915l-39.664-1.86c-1.048-0.048-2.1,0.416-2.884,1.132c-0.788,0.712-1.256,1.904-1.308,2.964l-6.292,131.18
			c-0.108,2.204,1.596,4.964,3.804,4.964c0.064,0,0.128,0,0.196,0c2.12,0,3.888-2.44,3.996-4.58l6.1-127.572l31.672,1.528
			l-3.324,69.036c-0.108,2.2,1.596,4.08,3.804,4.188c2.124,0.04,4.08-1.592,4.188-3.8l3.516-73.016
			C324.823,3.875,323.119,2.023,320.915,1.915z"
                    />
                  </g>
                </g>
                <g>
                  <g>
                    <path
                      d="M482.911,109.823c-0.416-0.98-1.2-1.748-2.184-2.148l-36.804-14.9c-2.04-0.832-4.38,0.156-5.208,2.204l-34.512,84.996
			c-0.828,2.048,0.156,4.38,2.204,5.212c2.048,0.832,4.384-0.156,5.212-2.204l33.008-81.292l29.392,11.896l-65.004,160.204
			c-0.828,2.048,0.156,4.38,2.204,5.212c0.492,0.2,1,0.296,1.5,0.296c1.58,0,3.076-0.94,3.708-2.496l66.508-163.916
			C483.331,111.903,483.327,110.799,482.911,109.823z"
                    />
                  </g>
                </g>
                <g>
                  <g>
                    <path
                      d="M426.855,37.155c-0.508-0.932-1.368-1.624-2.384-1.924l-38.092-11.216c-1.016-0.292-2.116-0.18-3.044,0.328
			c-0.932,0.508-1.624,1.368-1.924,2.384l-35.724,121.348c-0.624,2.12,0.588,4.344,2.708,4.968c0.38,0.108,0.756,0.164,1.132,0.164
			c1.728,0,3.324-1.132,3.836-2.872l34.596-117.516l30.42,8.956l-18.816,63.912c-0.624,2.12,0.588,4.344,2.708,4.968
			c2.12,0.62,4.344-0.588,4.968-2.708l19.944-67.748C427.479,39.179,427.363,38.087,426.855,37.155z"
                    />
                  </g>
                </g>
                <g>
                  <g>
                    <path
                      d="M428.907,110.159l-38.088-11.216c-1.012-0.292-2.112-0.18-3.044,0.328s-1.624,1.368-1.924,2.384l-50.504,171.548
			c-0.624,2.12,0.588,4.344,2.708,4.968c2.12,0.616,4.344-0.584,4.968-2.708l49.376-167.716l30.416,8.956l-46.58,158.22
			c-0.624,2.12,0.588,4.344,2.708,4.968c0.38,0.108,0.756,0.164,1.132,0.164c1.728,0,3.32-1.132,3.836-2.872l47.704-162.056
			C432.239,113.007,431.027,110.783,428.907,110.159z"
                    />
                  </g>
                </g>
                <g>
                  <g>
                    <path
                      d="M242.295,274.871l-16.124-149.816c-0.116-1.056-0.64-2.02-1.468-2.688c-0.828-0.664-1.896-0.98-2.936-0.86l-39.48,4.248
			c-2.196,0.236-3.784,2.208-3.548,4.404l15.668,145.568c0.236,2.196,2.224,3.78,4.404,3.548c2.196-0.236,3.784-2.208,3.548-4.404
			l-15.24-141.588l31.528-3.396l15.696,145.84c0.22,2.052,1.956,3.572,3.972,3.572c0.148,0,0.292-0.008,0.432-0.024
			C240.943,279.039,242.531,277.067,242.295,274.871z"
                    />
                  </g>
                </g>
                <g>
                  <g>
                    <path
                      d="M329.227,75.611l-39.636-2.404c-1.056-0.06-2.1,0.296-2.896,1c-0.796,0.704-1.276,1.692-1.34,2.752l-11.936,197.064
			c-0.132,2.208,1.548,4.104,3.752,4.236c2.192,0.16,4.104-1.548,4.236-3.752l11.696-193.072l31.652,1.916l-11.612,191.704
			c-0.132,2.208,1.548,4.104,3.752,4.236c0.084,0.008,0.164,0.008,0.248,0.008c2.096,0,3.86-1.636,3.98-3.756l11.856-195.696
			C333.111,77.639,331.431,75.743,329.227,75.611z"
                    />
                  </g>
                </g>
                <g>
                  <g>
                    <path
                      d="M369.891,18.607c-0.648-0.844-1.596-1.4-2.648-1.54l-39.348-5.332c-2.168-0.304-4.204,1.236-4.5,3.424l-8.58,63.288
			c-0.3,2.188,1.236,4.204,3.424,4.5c2.16,0.296,4.204-1.236,4.5-3.424l8.04-59.328l31.42,4.256l-33.92,250.312
			c-0.3,2.188,1.236,4.204,3.424,4.5c0.184,0.024,0.364,0.036,0.544,0.036c1.972,0,3.688-1.456,3.964-3.46l34.46-254.272
			C370.811,20.519,370.535,19.451,369.891,18.607z"
                    />
                  </g>
                </g>
                <g>
                  <g>
                    <path
                      d="M268.639,274.787L235.751,20.859c-0.136-1.056-0.684-2.008-1.524-2.656c-0.84-0.648-1.908-0.944-2.956-0.8l-39.38,5.1
			c-2.192,0.284-3.736,2.288-3.452,4.48l13.06,100.816c0.284,2.192,2.284,3.748,4.48,3.452c2.192-0.284,3.736-2.288,3.452-4.48
			l-12.544-96.844l31.444-4.076l32.372,249.96c0.26,2.02,1.98,3.488,3.96,3.488c0.172,0,0.348-0.008,0.524-0.032
			C267.379,278.983,268.923,276.979,268.639,274.787z"
                    />
                  </g>
                </g>
                <g>
                  <g>
                    <path
                      d="M108.447,199.335l-37.048-67.052c-1.064-1.924-3.488-2.632-5.42-1.576l-34.832,19.064c-0.932,0.512-1.62,1.372-1.92,2.388
			c-0.296,1.02-0.176,2.116,0.332,3.044l67.652,123.428c0.728,1.328,2.096,2.08,3.512,2.08c0.648,0,1.308-0.16,1.916-0.496
			c1.936-1.06,2.648-3.492,1.584-5.428l-65.728-119.92l27.828-15.228l35.12,63.564c1.068,1.936,3.508,2.632,5.436,1.568
			C108.811,203.703,109.515,201.267,108.447,199.335z"
                    />
                  </g>
                </g>
                <g>
                  <g>
                    <path
                      d="M179.387,273.883l-77.888-204.4c-0.792-2.068-3.108-3.096-5.164-2.316L59.231,81.303c-0.992,0.376-1.796,1.132-2.228,2.1
			c-0.432,0.968-0.464,2.068-0.088,3.06l72.5,190.26c0.792,2.068,3.1,3.096,5.164,2.316c2.068-0.788,3.104-3.1,2.316-5.164
			L65.819,87.351l29.628-11.288l76.46,200.656c0.612,1.596,2.128,2.58,3.74,2.58c0.476,0,0.956-0.084,1.424-0.252
			C179.139,278.259,180.175,275.947,179.387,273.883z"
                    />
                  </g>
                </g>
                <g>
                  <g>
                    <path
                      d="M194.919,206.415L142.555,35.359c-0.644-2.108-2.868-3.296-4.98-2.66L99.559,44.167c-1.016,0.308-1.868,1.004-2.368,1.94
			s-0.612,2.032-0.304,3.048l43.02,142.556c0.644,2.112,2.872,3.308,4.988,2.672c2.112-0.64,3.308-2.872,2.672-4.988l-41.864-138.72
			l30.372-9.164l51.196,167.244c0.528,1.724,2.112,2.832,3.824,2.832c0.388,0,0.784-0.06,1.168-0.176
			C194.379,210.763,195.567,208.527,194.919,206.415z"
                    />
                  </g>
                </g>
                <g>
                  <g>
                    <path
                      d="M198.811,46.159l-5.176-28.636c-0.188-1.044-0.784-1.972-1.656-2.576s-1.952-0.844-2.992-0.648l-39.076,7.064
			c-2.172,0.396-3.616,2.476-3.224,4.648l22.808,126.212c0.348,1.932,2.032,3.288,3.932,3.288c0.236,0,0.476-0.02,0.72-0.064
			c2.172-0.396,3.62-2.476,3.224-4.648L155.275,28.523l31.2-5.64l4.464,24.7c0.396,2.172,2.46,3.624,4.648,3.224
			C197.759,50.411,199.207,48.331,198.811,46.159z"
                    />
                  </g>
                </g>
                <g>
                  <g>
                    <path
                      d="M408.147,300.295h-244c-2.208,0-4,1.792-4,4s1.792,4,4,4h244c2.208,0,4-1.792,4-4S410.355,300.295,408.147,300.295z"
                    />
                  </g>
                </g>
                <g>
                  <g>
                    <path
                      d="M132.147,300.295h-28c-2.208,0-4,1.792-4,4s1.792,4,4,4h28c2.208,0,4-1.792,4-4S134.355,300.295,132.147,300.295z"
                    />
                  </g>
                </g>
                <g>
                  <g>
                    <path
                      d="M380.147,476.295h-188c-2.208,0-4,1.792-4,4s1.792,4,4,4h188c2.208,0,4-1.792,4-4S382.355,476.295,380.147,476.295z"
                    />
                  </g>
                </g>
                <g>
                  <g>
                    <path
                      d="M160.147,476.295h-28c-2.208,0-4,1.792-4,4s1.792,4,4,4h28c2.208,0,4-1.792,4-4S162.355,476.295,160.147,476.295z"
                    />
                  </g>
                </g>
                <g></g>
                <g></g>
                <g></g>
                <g></g>
                <g></g>
                <g></g>
                <g></g>
                <g></g>
                <g></g>
                <g></g>
                <g></g>
                <g></g>
                <g></g>
                <g></g>
                <g></g>
              </svg>